<svg width="657" height="106" viewBox="0 0 657 106" fill="none" xmlns="http://www.w3.org/2000/svg">
<path d="M47.04 105.696V94.048H35.52V82.4H23.744V70.88H12.224V59.232H0.576V46.56H12.224V34.912H23.744V23.264H35.52V11.744H47.04V0.095993H60.096V13.024H48.32V24.544H36.8V36.192H25.024V47.712H13.504V57.952H25.024V69.6H36.8V81.12H48.32V92.768H60.096V105.696H47.04ZM76.43 93.536V34.4H88.078V22.88H99.598V11.232H112.654V22.88H124.174V34.4H135.95V93.536H122.894V70.368H89.358V93.536H76.43ZM89.358 57.44H122.894V35.68H111.374V24.16H100.878V35.68H89.358V57.44ZM151.43 93.536V11.232H164.358V93.536H151.43ZM179.805 93.536V34.4H192.733V93.536H179.805ZM179.805 24.16V11.232H192.733V24.16H179.805ZM208.18 93.536V80.736H254.644V70.368H219.828V58.72H208.18V46.048H219.828V34.4H267.7V47.2H221.108V57.44H255.924V69.088H267.7V82.016H255.924V93.536H208.18ZM280.68 93.536V80.736H327.144V70.368H292.328V58.72H280.68V46.048H292.328V34.4H340.2V47.2H293.608V57.44H328.424V69.088H340.2V82.016H328.424V93.536H280.68ZM364.828 93.536V82.016H353.18V46.048H364.828V34.4H400.924V46.048H412.7V82.016H400.924V93.536H364.828ZM366.108 80.736H399.644V47.2H366.108V80.736ZM428.18 93.536V34.4H475.924V46.048H487.7V93.536H474.644V47.2H441.108V93.536H428.18ZM528.805 93.536L569.509 11.232H580.901L540.197 93.536H528.805ZM597.451 105.696V92.768H609.099V81.12H620.747V69.6H632.395V57.952H644.043V47.712H632.395V36.192H620.747V24.544H609.099V13.024H597.451V0.095993H610.379V11.744H622.027V23.264H633.675V34.912H645.195V46.56H656.971V59.232H645.195V70.88H633.675V82.4H622.027V94.048H610.379V105.696H597.451Z" fill="#B900CA"/>
</svg>
